<svg xmlns="http://www.w3.org/2000/svg" xmlns:xlink="http://www.w3.org/1999/xlink" xmlns:inkscape="http://www.inkscape.org/namespaces/inkscape" version="1.1" viewBox="240.26 218.24 440.2 88.27">
<g inkscape:groupmode="layer" inkscape:label="Capa 1">
<path transform="matrix(1,0,0,-1,0,518.3997)" d="M340.5849 276.893C343.4386 276.893 345.7514 274.5802 345.7514 271.7266 345.7514 268.8729 343.4386 266.5602 340.5849 266.5602 337.7313 266.5602 335.4188 268.8729 335.4188 271.7266 335.4188 274.5802 337.7313 276.893 340.5849 276.893" fill="#7688a1" fill-rule="evenodd"/>
<path transform="matrix(1,0,0,-1,0,518.3997)" d="M360.3249 276.893C363.1785 276.893 365.4913 274.5802 365.4913 271.7266 365.4913 268.8729 363.1785 266.5602 360.3249 266.5602 357.4712 266.5602 355.1587 268.8729 355.1587 271.7266 355.1587 274.5802 357.4712 276.893 360.3249 276.893" fill="#7688a1" fill-rule="evenodd"/>
<path transform="matrix(1,0,0,-1,0,518.3997)" d="M333.5941 243.2942C329.1029 243.4757 325.3365 245.1532 322.3256 248.2951 319.2996 251.4526 317.1603 255.0886 315.9108 259.2011 314.6613 263.3136 314.0351 267.4755 314.0351 271.7184 314.0351 275.9627 314.6777 280.1245 315.9598 284.2041 317.2433 288.2829 319.3809 291.9189 322.3757 295.0929 325.3527 298.2847 329.1029 299.9622 333.5941 300.1601H335.4199C345.4104 300.1601 355.4005 300.1601 365.3909 300.1601H367.2167C371.7079 299.9622 375.4582 298.2847 378.4354 295.0929 381.4299 291.9189 383.5675 288.2829 384.8511 284.2041 386.1332 280.1245 386.7758 275.9627 386.7758 271.7184 386.7758 267.4755 386.1496 263.3136 384.9001 259.2011 383.6506 255.0886 381.5113 251.4526 378.4856 248.2951 375.4743 245.1532 371.7079 243.4757 367.2167 243.2942 356.0091 243.2942 344.8018 243.2942 333.5941 243.2942ZM336.5714 287.2466C334.1364 287.1147 332.1139 286.1776 330.5018 284.4499 328.9062 282.7074 327.7216 280.7328 326.9812 278.5119 326.2414 276.3077 325.8788 274.0382 325.8788 271.7184 325.8788 269.4161 326.2249 267.1291 326.9327 264.8758 327.6388 262.6387 328.8231 260.6477 330.4517 258.9542 332.0955 257.2441 334.1327 256.2077 336.5714 256.2077 341.7755 256.2077 345.4597 258.9656 350.4056 258.9273 355.3512 258.9656 359.0354 256.2077 364.2395 256.2077 366.6781 256.2077 368.7154 257.2441 370.3592 258.9542 371.9877 260.6477 373.172 262.6387 373.8781 264.8758 374.586 267.1291 374.9321 269.4161 374.9321 271.7184 374.9321 274.0382 374.5695 276.3077 373.8297 278.5119 373.0893 280.7328 371.9047 282.7074 370.309 284.4499 368.697 286.1776 366.6745 287.1147 364.2395 287.2466 355.0167 287.2466 345.7942 287.2466 336.5714 287.2466" fill="#7688a1"/>
<path transform="matrix(1,0,0,-1,0,518.3997)" d="M253.9919 248.2115C253.6135 244.3459 251.4915 242.257 247.6261 241.9444 245.8329 241.9444 244.2705 242.5365 242.9544 243.7209 241.6385 244.9052 240.9806 246.4021 240.9806 248.2115V293.891C241.0464 295.6839 241.7207 297.1809 243.0037 298.3652 244.2869 299.5659 245.8329 300.1581 247.6261 300.1581H252.3634 264.2068 288.0252C288.4037 300.1581 288.7821 300.1252 289.1767 300.0594H289.7524C294.243 299.9279 297.9442 298.908 300.8392 296.9671 303.7343 295.0424 305.8234 292.8382 307.1064 290.3709 308.3893 287.9033 309.0308 285.4032 309.0308 282.903 309.0308 280.3368 308.4058 277.8038 307.1557 275.3362 305.8892 272.8689 303.8 270.6647 300.8886 268.74 297.9607 266.7991 294.243 265.7792 289.7524 265.6477H272.7933C273.3032 262.44 274.356 260.0549 275.9681 258.5251 277.5144 256.9791 279.4717 256.2058 281.8568 256.2058H302.665C304.4744 256.14 305.9549 255.4656 307.1557 254.1827 308.34 252.8994 308.9322 251.3534 308.9322 249.5602 308.8664 247.8166 308.2414 246.3528 307.057 245.1685 305.8563 243.9842 304.4086 243.3589 302.665 243.2931H280.1132C275.3595 243.2273 271.0497 245.0863 267.2005 248.8859 263.3513 252.6693 260.9991 257.1763 260.1604 262.3742 259.0089 268.1478 258.4332 271.4049 258.4332 272.1121 258.4332 273.9053 259.0583 275.4349 260.3083 276.6852 261.5584 277.9353 263.0883 278.5603 264.8812 278.5603H290.3281C291.5453 278.6261 292.5652 278.9056 293.3714 279.3827 294.1773 279.8597 294.7694 280.419 295.1478 281.0276 295.5424 281.6362 295.7236 282.2613 295.7236 282.903 295.7236 283.5445 295.5424 284.1695 295.1478 284.7781 294.7694 285.3867 294.1773 285.946 293.3714 286.4231 292.5652 286.9002 291.5453 287.1797 290.3281 287.2454H264.2068 256.5085C254.8307 287.1797 253.9919 286.3409 253.9919 284.7288Z" fill="#7688a1"/>
<path transform="matrix(1,0,0,-1,0,518.3997)" d="M455.9652 268.74C457.1989 266.1576 457.8075 263.5586 457.8075 260.9269 457.8075 258.3607 457.166 255.8112 455.883 253.2614 454.5833 250.7284 452.4945 248.4748 449.6156 246.5172 446.7206 244.5599 443.0197 243.5729 438.529 243.5729H437.9533C437.5585 243.5071 437.18 243.4742 436.7854 243.4742H398.0475C396.3039 243.54 394.8562 244.165 393.6555 245.3658 392.4711 246.5501 391.8461 248.0142 391.7803 249.7414V293.891C391.8461 295.6181 392.4711 297.0822 393.6555 298.283 394.8562 299.4673 396.3039 300.0923 398.0475 300.1581H431.2091C431.5876 300.1581 431.9657 300.1252 432.3606 300.0594H432.9363C437.4269 299.9279 441.1278 298.908 444.0231 296.9671 446.9182 295.0424 449.007 292.8382 450.2903 290.3709 451.5732 287.9033 452.2147 285.4032 452.2147 282.903 452.2147 280.3368 451.6061 277.8202 450.3889 275.3855 450.3231 275.254 450.2574 275.1554 450.1913 275.0896 452.8233 273.2306 454.748 271.1089 455.9652 268.74ZM439.1048 256.4033C440.322 256.3373 441.3419 256.5513 442.1477 257.0777 442.9375 257.5877 443.5461 258.1798 443.9242 258.8542 444.3026 259.5285 444.4999 260.2193 444.4999 260.9269 444.4999 261.3708 444.3026 261.9961 443.9242 262.802 443.5461 263.6079 442.9375 264.2661 442.1477 264.7757 441.3419 265.3021 440.322 265.5819 439.1048 265.6477H432.9363 404.7917V259.0021C404.7917 257.2586 405.6965 256.4033 407.4894 256.4033H408.2624ZM436.6043 279.432C437.3776 279.8762 437.9533 280.419 438.3315 281.0276 438.7263 281.6362 438.9072 282.2613 438.9072 282.903 438.9072 283.5445 438.7263 284.1695 438.3315 284.7781 437.9533 285.3867 437.3612 285.946 436.555 286.4231 435.7491 286.9002 434.7292 287.1797 433.512 287.2454H407.4894C405.6965 287.2454 404.7917 286.3738 404.7917 284.6302V278.5603H433.512C434.7292 278.6261 435.7655 278.9223 436.6043 279.432" fill="#7688a1"/>
<path transform="matrix(1,0,0,-1,0,518.3997)" d="M515.992 300.1581C519.2651 300.0923 522.1933 299.056 524.7592 297.0658 527.3254 295.0753 529.3979 292.7066 530.977 289.9431 532.5562 287.1797 533.7241 284.2517 534.4971 281.1759 535.2704 278.0833 535.6485 274.9414 535.6485 271.7175 535.6485 267.4735 534.9906 263.3284 533.6748 259.2326 532.3589 255.153 530.204 251.5507 527.2101 248.3923 524.2329 245.2507 520.4823 243.54 515.992 243.2931H482.3697C477.879 243.4742 474.1121 245.1521 471.102 248.2937 468.0754 251.4521 465.9369 255.0872 464.6869 259.1997 463.4365 263.3119 462.8115 267.4735 462.8115 271.7175 462.8115 275.9613 463.4529 280.1231 464.7362 284.2024 466.0191 288.2818 468.1576 291.9172 471.1513 295.0917 474.1285 298.283 477.879 299.9608 482.3697 300.1581H484.1955 514.1659ZM512.7185 256.2058C515.1529 256.3373 517.1927 257.2421 518.8377 258.9528 520.4659 260.6471 521.6505 262.6376 522.3577 264.8747 523.065 267.1282 523.4105 269.4146 523.4105 271.7175 523.4105 274.0368 523.0485 276.3068 522.3084 278.511 521.568 280.7317 520.3837 282.7054 518.7881 284.449 517.1763 286.1762 515.1529 287.1139 512.7185 287.2454H485.3469C482.9125 287.1139 480.8891 286.1762 479.2771 284.449 477.6817 282.7054 476.4971 280.7317 475.757 278.511 475.0169 276.3068 474.6549 274.0368 474.6549 271.7175 474.6549 269.4146 475.0004 267.1282 475.7077 264.8747 476.4149 262.6376 477.5992 260.6471 479.2277 258.9528 480.8727 257.2421 482.9125 256.3373 485.3469 256.2058Z" fill="#7688a1"/>
<path transform="matrix(1,0,0,-1,0,518.3997)" d="M559.9151 300.1581H600.594C602.3871 300.0923 603.8838 299.418 605.0682 298.135 606.2689 296.8517 606.8611 295.3057 606.8611 293.5125 606.5323 289.6472 604.4431 287.5581 600.594 287.2454H563.1885C560.7541 287.1139 558.7308 286.1762 557.1187 284.449 555.5231 282.7054 554.3388 280.7317 553.5986 278.511 552.8585 276.3068 552.4965 274.0368 552.4965 271.7175 552.4965 269.4146 552.8585 267.1447 553.5986 264.924 554.3388 262.7033 555.5231 260.7293 557.1187 259.0021 558.7308 257.2586 560.7541 256.3373 563.1885 256.2058H592.501C593.6525 256.2715 594.2611 256.913 594.3268 258.1305V263.7232C594.2611 265.0062 593.6525 265.6477 592.501 265.6477H567.8271C566.0178 265.6477 564.5044 266.2727 563.2379 267.5228 561.9878 268.7896 561.3627 270.3027 561.3627 272.1121 561.3627 273.9053 561.9713 275.4513 563.1885 276.7346 564.4879 277.9517 566.0178 278.5603 567.8271 278.5603H600.7915C602.5844 278.5603 604.1307 277.9517 605.4137 276.7346 606.5651 275.5171 607.1737 274.0368 607.2395 272.2932V272.1121 249.5602C607.1737 247.8166 606.5651 246.3693 605.4137 245.2178 604.1965 244.0006 602.716 243.3589 600.9724 243.2931H559.9151C555.4244 243.54 551.7071 245.2671 548.7956 248.4417 545.8674 251.6329 543.7786 255.2355 542.5282 259.2819 541.2781 263.3448 540.6531 267.4735 540.6531 271.7175 540.6531 275.9613 541.2946 280.1066 542.5778 284.1531 543.8608 288.1996 545.9496 291.8183 548.8449 294.9931 551.7235 298.1843 555.4244 299.895 559.9151 300.1581" fill="#7688a1"/>
<path transform="matrix(1,0,0,-1,0,518.3997)" d="M625.2557 248.3923C624.8772 244.5435 622.7552 242.4543 618.8899 242.1252 617.0967 242.1252 615.5342 242.7338 614.2181 243.9181 612.9023 245.1027 612.2443 246.5994 612.2443 248.3923V293.891C612.3101 295.6839 612.9845 297.1809 614.2674 298.3652 615.5507 299.5659 617.0967 300.1581 618.8899 300.1581H659.3712C665.0297 299.9608 669.3066 298.7271 672.2016 296.4407 675.0802 294.1707 677.1694 291.5717 678.4688 288.6766 679.7517 285.798 680.3935 282.8701 680.3935 279.9091 680.3935 276.8332 679.7682 273.8395 678.5016 270.9442 677.2516 268.0656 675.1624 265.4668 672.251 263.1969 669.3231 260.9104 665.6054 259.8083 661.1148 259.8741H636.8193C635.0264 259.8741 633.513 260.5156 632.2958 261.7985 631.0128 263.0157 630.3713 264.5291 630.3713 266.322 630.3713 268.1314 630.9964 269.6448 632.2465 270.8949 633.4965 272.1617 635.0264 272.7867 636.8193 272.7867H661.6905C662.908 272.7867 663.9276 273.1813 664.7338 273.9875 665.5232 274.7934 666.1318 275.7146 666.5102 276.7839 666.8887 277.8367 667.086 278.9223 667.086 280.0077 667.086 281.0441 666.8887 282.0804 666.5102 283.1496 666.1318 284.2024 665.5232 285.1401 664.7338 285.946 663.9276 286.7355 662.908 287.1797 661.6905 287.2454H627.7723C626.0944 287.1797 625.2557 286.3409 625.2557 284.7288Z" fill="#7688a1"/>
<path transform="matrix(1,0,0,-1,0,518.3997)" d="M253.4168 218.4395V223.9798C253.4168 224.3642 253.2169 224.5643 252.8167 224.5802H244.7691C244.4788 224.5643 244.2277 224.4387 244.012 224.1995 243.796 223.9639 243.6392 223.6856 243.5411 223.3715 243.4431 223.0577 243.392 222.7399 243.392 222.4182 243.392 222.1121 243.4431 221.8022 243.5411 221.4882 243.6392 221.1744 243.796 220.8957 244.012 220.6604 244.2277 220.4209 244.4788 220.3033 244.7691 220.3033H250.6547C251.0861 220.3033 251.4512 220.1542 251.7494 219.856 252.0476 219.5538 252.1967 219.1929 252.1967 218.7612 252.1967 218.3335 252.0437 217.9726 251.7375 217.6824 251.4472 217.3762 251.0861 217.2231 250.6547 217.2231H244.8632C243.7883 217.2387 242.9053 217.5409 242.2069 218.1297 241.5087 218.7221 241.0104 219.3851 240.7122 220.1306 240.414 220.8722 240.2649 221.6452 240.2649 222.4417 240.2649 223.2068 240.4176 223.9639 240.7238 224.7055 241.0299 225.4473 241.5283 226.1143 242.2188 226.7067 242.9093 227.2952 243.9295 227.613 245.2754 227.66H254.9313C255.363 227.66 255.7278 227.5189 256.038 227.2363 256.3438 226.95 256.5048 226.5928 256.5204 226.1653V218.4395C256.5204 218.0117 256.3637 217.6549 256.0459 217.3723 255.7318 217.0896 255.363 216.9445 254.9313 216.9445 254.0132 217.023 253.5072 217.5214 253.4168 218.4395ZM268.1308 227.8877C268.5467 227.876 268.8999 227.7269 269.1901 227.4403 269.4804 227.158 269.6335 226.8088 269.6494 226.3966V218.4395C269.5589 217.5214 269.0529 217.023 268.1308 216.9445 267.7031 216.9445 267.3303 217.0896 267.0165 217.3723 266.7025 217.6549 266.5457 218.0117 266.5457 218.4395V226.3966C266.5613 226.8244 266.7223 227.1815 267.0282 227.4639 267.3343 227.7465 267.7031 227.8877 268.1308 227.8877ZM266.2004 230.8776C266.2004 231.3091 266.3847 231.6742 266.7535 231.98 267.1223 232.2901 267.5659 232.4432 268.0875 232.4432 268.6093 232.4432 269.0529 232.2901 269.4217 231.98 269.7866 231.6742 269.9711 231.3091 269.9711 230.8776 269.9711 230.4343 269.7866 230.0576 269.4217 229.7514 269.0529 229.4453 268.6093 229.2925 268.0875 229.2925 267.5659 229.2925 267.1223 229.4453 266.7535 229.7514 266.3847 230.0576 266.2004 230.4343 266.2004 230.8776" fill="#7688a1"/>
<path transform="matrix(1,0,0,-1,0,518.3997)" d="M308.2507 224.7644C308.541 225.4983 309.0356 226.1614 309.7338 226.7498 310.4323 227.3423 311.3152 227.6444 312.3901 227.66H321.0341C321.4619 227.66 321.8227 227.5072 322.113 227.2011 322.4231 226.9108 322.5762 226.5497 322.5762 226.1183 322.5762 225.6905 322.4271 225.3254 322.1249 225.0275 321.8267 224.7293 321.4619 224.5802 321.0341 224.5802H312.296C312.0058 224.5802 311.7546 224.4583 311.5389 224.223 311.3229 223.9838 311.1582 223.7051 311.0445 223.3834 310.9306 223.0617 310.8719 222.7555 310.8719 222.4653V218.4395C310.7815 217.5214 310.2755 217.023 309.3534 216.9445 308.9256 216.9445 308.5529 217.0896 308.2391 217.3723 307.925 217.6549 307.7683 218.0117 307.7683 218.4395V222.4417H307.7918C307.7918 223.2383 307.9449 224.011 308.2507 224.7644ZM344.7683 218.4395V223.9798C344.7683 224.3642 344.5685 224.5643 344.1682 224.5802H336.1207C335.8304 224.5643 335.5792 224.4387 335.3635 224.1995 335.1475 223.9639 334.9908 223.6856 334.8927 223.3715 334.7946 223.0577 334.7436 222.7399 334.7436 222.4182 334.7436 222.1121 334.7946 221.8022 334.8927 221.4882 334.9908 221.1744 335.1475 220.8957 335.3635 220.6604 335.5792 220.4209 335.8304 220.3033 336.1207 220.3033H342.0062C342.4377 220.3033 342.8028 220.1542 343.101 219.856 343.3992 219.5538 343.5483 219.1929 343.5483 218.7612 343.5483 218.3335 343.3952 217.9726 343.0891 217.6824 342.7988 217.3762 342.4377 217.2231 342.0062 217.2231H336.2148C335.1399 217.2387 334.2569 217.5409 333.5584 218.1297 332.8603 218.7221 332.3619 219.3851 332.0637 220.1306 331.7655 220.8722 331.6164 221.6452 331.6164 222.4417 331.6164 223.2068 331.7692 223.9639 332.0753 224.7055 332.3815 225.4473 332.8798 226.1143 333.5703 226.7067 334.2609 227.2952 335.281 227.613 336.6269 227.66H346.2829C346.7146 227.66 347.0794 227.5189 347.3895 227.2363 347.6954 226.95 347.8564 226.5928 347.872 226.1653V218.4395C347.872 218.0117 347.7152 217.6549 347.3974 217.3723 347.0834 217.0896 346.7146 216.9445 346.2829 216.9445 345.3647 217.023 344.8587 217.5214 344.7683 218.4395ZM362.5662 217.2231C361.2166 217.2662 360.1964 217.588 359.5059 218.1767 358.8191 218.7652 358.321 219.4322 358.0109 220.1777 357.7048 220.9192 357.552 221.6767 357.552 222.4417 357.552 223.2383 357.7011 224.0073 358.003 224.7528 358.3012 225.4944 358.7995 226.1614 359.494 226.7498 360.1925 227.3423 361.0791 227.6444 362.1504 227.66H370.8884C371.3162 227.66 371.677 227.5072 371.9673 227.2011 372.2734 226.9108 372.4265 226.5497 372.4265 226.1183 372.4265 225.6905 372.2774 225.3254 371.9792 225.0275 371.681 224.7293 371.3162 224.5802 370.8884 224.5802H362.0602C361.77 224.5802 361.5148 224.4583 361.2991 224.223 361.0871 223.9838 360.93 223.7091 360.828 223.395 360.7299 223.0812 360.6789 222.7711 360.6789 222.4653 360.6789 222.1435 360.7299 221.8258 360.828 221.5117 360.93 221.1939 361.0871 220.9192 361.2991 220.684 361.5148 220.4444 361.77 220.3189 362.0602 220.3033H370.8884C371.3162 220.3033 371.681 220.1542 371.9792 219.856 372.2774 219.5538 372.4265 219.1929 372.4265 218.7612 372.4265 218.3335 372.2734 217.9726 371.9673 217.6824 371.677 217.3762 371.3162 217.2231 370.8884 217.2231ZM383.4876 227.8877C383.9034 227.876 384.2566 227.7269 384.5469 227.4403 384.8372 227.158 384.9902 226.8088 385.0061 226.3966V218.4395C384.9157 217.5214 384.4097 217.023 383.4876 216.9445 383.0598 216.9445 382.6871 217.0896 382.3733 217.3723 382.0592 217.6549 381.9025 218.0117 381.9025 218.4395V226.3966C381.918 226.8244 382.0791 227.1815 382.3849 227.4639 382.6911 227.7465 383.0598 227.8877 383.4876 227.8877ZM381.5572 230.8776C381.5572 231.3091 381.7414 231.6742 382.1102 231.98 382.479 232.2901 382.9226 232.4432 383.4442 232.4432 383.9661 232.4432 384.4097 232.2901 384.7785 231.98 385.1433 231.6742 385.3278 231.3091 385.3278 230.8776 385.3278 230.4343 385.1433 230.0576 384.7785 229.7514 384.4097 229.4453 383.9661 229.2925 383.4442 229.2925 382.9226 229.2925 382.479 229.4453 382.1102 229.7514 381.7414 230.0576 381.5572 230.4343 381.5572 230.8776ZM402.2076 228.0053C403.0041 228.0053 403.7927 227.9151 404.5657 227.7309 405.3387 227.5464 406.0803 227.2757 406.7827 226.9145 407.4888 226.5537 408.1127 226.0749 408.6581 225.4785 409.2035 224.8784 409.4977 224.168 409.5408 223.3403V222.3748 218.4435C409.4507 217.5214 408.9444 217.023 408.0263 216.9485 407.5948 216.9485 407.226 217.0896 406.912 217.3723 406.5942 217.6588 406.4374 218.0117 406.4374 218.4435V219.4557 222.626C406.41 223.1008 406.2294 223.4971 405.8997 223.8111 405.57 224.1249 405.2013 224.3761 404.7934 224.5564 404.3891 224.7409 403.9693 224.8784 403.53 224.9725 403.0943 225.0626 402.6549 225.1097 402.2076 225.1097 401.7643 225.1097 401.3249 225.0626 400.8852 224.9725 400.4498 224.8784 400.03 224.7409 399.6218 224.5564 399.2179 224.3761 398.8488 224.1249 398.5194 223.8111 398.1898 223.4971 398.0092 223.1008 397.978 222.626V219.4557 218.4435C397.9035 217.5214 397.4051 217.023 396.483 216.9485 396.0553 216.9485 395.6825 217.0896 395.3687 217.3723 395.0546 217.6588 394.8979 218.0117 394.8979 218.4435V222.3748 223.3403C394.9449 224.168 395.2352 224.8784 395.7727 225.4785 396.3064 226.0749 396.9303 226.5537 397.6325 226.9145 398.3389 227.2757 399.0764 227.5464 399.8534 227.7309 400.6264 227.9151 401.4111 228.0053 402.2076 228.0053ZM432.4201 223.9798C432.4201 224.3642 432.22 224.5643 431.8237 224.5802H423.7761C423.4859 224.5643 423.2347 224.4387 423.019 224.1995 422.803 223.9639 422.6462 223.6856 422.5482 223.3715 422.4461 223.0577 422.3991 222.7399 422.3991 222.4182 422.3991 222.1121 422.4461 221.8022 422.5482 221.4882 422.6462 221.1744 422.803 220.8957 423.019 220.6604 423.2347 220.4209 423.4859 220.3033 423.7761 220.3033H429.6617C430.0934 220.3033 430.4543 220.1542 430.7525 219.856 431.0546 219.5538 431.2037 219.1929 431.2037 218.7612 431.2037 218.3335 431.0507 217.9726 430.7445 217.6824 430.4503 217.3762 430.0934 217.2231 429.6617 217.2231H423.8702C422.7953 217.2387 421.9123 217.5409 421.2139 218.1297 420.5157 218.7221 420.0174 219.3851 419.7192 220.1306 419.421 220.8722 419.2719 221.6452 419.2719 222.4417 419.2719 223.2068 419.4249 223.9639 419.7308 224.7055 420.0369 225.4473 420.5353 226.1143 421.2258 226.7067 421.9163 227.2952 422.9325 227.613 424.2824 227.66H433.9386C434.3661 227.66 434.7349 227.5189 435.041 227.2363 435.3471 226.95 435.5079 226.5928 435.5237 226.1653V218.9024C435.5237 217.6744 435.3548 216.517 435.0175 215.43 434.7113 214.4648 434.2093 213.6487 433.5148 212.9817 432.8164 212.3147 431.9297 211.9499 430.8585 211.8869H422.9011C422.4892 211.9028 422.14 212.0519 421.8576 212.3382 421.575 212.6208 421.4259 212.97 421.4103 213.3819 421.4103 213.8136 421.5515 214.1785 421.8338 214.4883 422.1164 214.7944 422.4736 214.9554 422.9011 214.9671H430.0775C430.6584 214.9985 431.1408 215.2222 431.5255 215.634 431.9059 216.0499 432.1531 216.5326 432.2591 217.086 432.3691 217.635 432.4201 218.3494 432.4201 219.2241Z" fill="#7688a1"/>
<path transform="matrix(1,0,0,-1,0,518.3997)" d="M488.5407 226.3221C488.5407 225.9417 488.3876 225.6199 488.0818 225.3569 487.7872 225.1137 487.4304 224.9921 486.9986 224.9921H477.2758C477.0757 224.9921 476.915 224.9529 476.7934 224.8784 476.6717 224.7999 476.5774 224.7174 476.5147 224.6349 476.4557 224.5487 476.4246 224.4781 476.4246 224.4152 476.4246 224.3367 476.4557 224.2585 476.5147 224.172 476.5774 224.0895 476.6717 224.011 476.7934 223.9404 476.915 223.8738 477.0757 223.8307 477.2758 223.8148H484.7936C485.7588 223.7992 486.5553 223.611 487.1832 223.2539 487.8111 222.893 488.262 222.4729 488.5291 221.9905 488.7958 221.5077 488.933 221.0213 488.933 220.5309 488.933 220.0561 488.7918 219.5773 488.5172 219.0949 488.2425 218.6121 487.7912 218.1923 487.1713 217.8315 486.5513 217.4743 485.7588 217.2937 484.7936 217.2937 484.6249 217.2781 484.5033 217.2702 484.4248 217.2702H475.5064C475.0787 217.2702 474.7136 217.3958 474.4154 217.6469 474.1174 217.902 473.9683 218.2119 473.9683 218.577 473.9683 218.9574 474.1211 219.2791 474.4273 219.5422 474.7175 219.7854 475.0787 219.907 475.5064 219.907H484.9781C485.2057 219.8914 485.394 219.9226 485.5391 220.0011 485.6842 220.0757 485.7982 220.1621 485.8727 220.2523 485.951 220.3464 485.9904 220.4405 485.9904 220.5309 485.9904 220.578 485.951 220.6565 485.8727 220.7741 485.7982 220.8878 485.6842 220.9822 485.5391 221.0528 485.394 221.1194 485.2057 221.1625 484.9781 221.1783H477.4368C476.5462 221.1939 475.8123 221.3821 475.2317 221.7393 474.647 222.1004 474.2351 222.5163 473.9919 222.9911 473.7447 223.4656 473.6228 223.9404 473.6228 224.4152 473.6228 224.89 473.7484 225.3609 474.0035 225.8277 474.2546 226.2946 474.6665 226.6988 475.2434 227.0441 475.8163 227.3893 476.5462 227.5739 477.4368 227.6053 477.5899 227.6209 477.7036 227.6289 477.7821 227.6289H486.9986C487.4304 227.6289 487.7912 227.5033 488.0934 227.2521 488.3916 226.997 488.5407 226.6872 488.5407 226.3221ZM500.1316 227.8877C500.5474 227.876 500.9006 227.7269 501.1909 227.4403 501.4811 227.158 501.6342 226.8088 501.6501 226.3966V218.4395C501.5597 217.5214 501.0537 217.023 500.1316 216.9445 499.7038 216.9445 499.3311 217.0896 499.0173 217.3723 498.7032 217.6549 498.5464 218.0117 498.5464 218.4395V226.3966C498.562 226.8244 498.723 227.1815 499.0289 227.4639 499.335 227.7465 499.7038 227.8877 500.1316 227.8877ZM498.2012 230.8776C498.2012 231.3091 498.3854 231.6742 498.7542 231.98 499.123 232.2901 499.5666 232.4432 500.0882 232.4432 500.61 232.4432 501.0537 232.2901 501.4225 231.98 501.7873 231.6742 501.9718 231.3091 501.9718 230.8776 501.9718 230.4343 501.7873 230.0576 501.4225 229.7514 501.0537 229.4453 500.61 229.2925 500.0882 229.2925 499.5666 229.2925 499.123 229.4453 498.7542 229.7514 498.3854 230.0576 498.2012 230.4343 498.2012 230.8776ZM516.3914 228.0053C516.9291 228.0053 517.4546 227.9151 517.9689 227.7309 518.4828 227.5464 518.9771 227.2757 519.4519 226.9264 519.5265 226.8479 519.6127 226.7734 519.7031 226.6948 519.7816 226.7734 519.8638 226.8479 519.9579 226.9264 520.4327 227.2757 520.9271 227.5464 521.4373 227.7309 521.9512 227.9151 522.4691 228.0053 522.991 228.0053 523.5284 228.0053 524.0543 227.9151 524.5645 227.7309 525.0784 227.5464 525.5688 227.2757 526.0357 226.9145 526.5065 226.5537 526.9187 226.0749 527.2795 225.4785 527.6407 224.8784 527.8173 224.168 527.8173 223.3403V218.4435C527.7268 217.5214 527.2209 217.023 526.3027 216.9485 525.871 216.9485 525.5022 217.0896 525.1884 217.3723 524.8743 217.6588 524.7136 218.0117 524.7136 218.4435V223.1558C524.7136 223.5246 524.6467 223.8347 524.5095 224.0855 524.372 224.3407 524.2192 224.5368 524.0503 224.6859 523.8816 224.8311 523.705 224.9371 523.5208 225.0077 523.3363 225.0746 523.152 225.1097 522.9675 225.1097 522.7832 225.1097 522.6026 225.0746 522.426 225.0077 522.2534 224.9371 522.0808 224.8311 521.9121 224.6859 521.7432 224.5368 521.5904 224.3407 521.4489 224.0855 521.3117 223.8347 521.2372 223.5246 521.2213 223.1558V218.4435C521.1272 217.5214 520.6252 217.023 519.7031 216.9485 519.2753 216.9485 518.9026 217.0896 518.5888 217.3723 518.2747 217.6588 518.118 218.0117 518.118 218.4435V223.1558C518.118 223.5246 518.0471 223.8347 517.9099 224.0855 517.7727 224.3407 517.6196 224.5368 517.4507 224.6859 517.282 224.8311 517.1054 224.9371 516.9212 225.0077 516.7366 225.0746 516.5524 225.1097 516.3678 225.1097 516.1873 225.1097 516.007 225.0746 515.8304 225.0077 515.6538 224.9371 515.4812 224.8311 515.3125 224.6859 515.1436 224.5368 514.9908 224.3407 514.8533 224.0855 514.7161 223.8347 514.6376 223.5246 514.622 223.1558V218.4435C514.5474 217.5214 514.0491 217.023 513.127 216.9485 512.6992 216.9485 512.3265 217.0896 512.0127 217.3723 511.6986 217.6588 511.5419 218.0117 511.5419 218.4435V223.3403C511.573 224.168 511.7655 224.8784 512.1147 225.4785 512.4677 226.0749 512.8838 226.5537 513.3583 226.9145 513.8331 227.2757 514.3275 227.5464 514.8417 227.7309 515.3556 227.9151 515.8735 228.0053 516.3914 228.0053ZM545.0658 216.8229C544.2693 216.8229 543.4846 216.9133 542.7116 217.0976 541.9346 217.2821 541.1971 217.5528 540.4907 217.9137 539.7885 218.2748 539.1646 218.7533 538.6309 219.3497 538.0934 219.9501 537.8031 220.6604 537.7561 221.4882V222.4534 226.385C537.7561 226.8164 537.9129 227.1696 538.2269 227.4562 538.5407 227.7386 538.9135 227.88 539.3412 227.88 540.2633 227.8054 540.7617 227.3071 540.8362 226.385V225.3728 222.2022C540.8674 221.7277 541.048 221.3314 541.3776 221.0173 541.707 220.7035 542.0761 220.4563 542.48 220.2718 542.8882 220.0876 543.308 219.9501 543.7434 219.856 544.1831 219.7658 544.6225 219.7188 545.0658 219.7188 545.5131 219.7188 545.9525 219.7658 546.3882 219.856 546.8275 219.9501 547.2473 220.0876 547.6516 220.2718 548.0595 220.4563 548.4283 220.7035 548.7579 221.0173 549.0876 221.3314 549.2682 221.7277 549.2957 222.2022V225.3728 226.385C549.2957 226.8164 549.4524 227.1696 549.7702 227.4562 550.0843 227.7386 550.453 227.88 550.8845 227.88 551.8026 227.8054 552.3089 227.3071 552.399 226.385V222.4534 221.4882C552.3559 220.6604 552.0617 219.9501 551.5163 219.3497 550.9709 218.7533 550.347 218.2748 549.6409 217.9137 548.9385 217.5528 548.1969 217.2821 547.4239 217.0976 546.6509 216.9133 545.8623 216.8229 545.0658 216.8229ZM563.9899 231.156C564.4057 231.1404 564.7589 230.9913 565.0492 230.705 565.3395 230.4224 565.4925 230.0732 565.5084 229.6613V218.3964C565.418 217.4743 564.912 216.976 563.9899 216.9014 563.5621 216.9014 563.1894 217.0426 562.8756 217.3252 562.5615 217.6078 562.4048 217.9647 562.4048 218.3964V229.6613C562.4203 230.0888 562.5814 230.4459 562.8872 230.7285 563.1934 231.0109 563.5621 231.156 563.9899 231.156ZM588.344 218.4395V223.9798C588.344 224.3642 588.1442 224.5643 587.7439 224.5802H579.6964C579.4061 224.5643 579.155 224.4387 578.9392 224.1995 578.7232 223.9639 578.5665 223.6856 578.4684 223.3715 578.3703 223.0577 578.3193 222.7399 578.3193 222.4182 578.3193 222.1121 578.3703 221.8022 578.4684 221.4882 578.5665 221.1744 578.7232 220.8957 578.9392 220.6604 579.155 220.4209 579.4061 220.3033 579.6964 220.3033H585.582C586.0134 220.3033 586.3785 220.1542 586.6767 219.856 586.9749 219.5538 587.124 219.1929 587.124 218.7612 587.124 218.3335 586.9709 217.9726 586.6648 217.6824 586.3745 217.3762 586.0134 217.2231 585.582 217.2231H579.7905C578.7156 217.2387 577.8326 217.5409 577.1341 218.1297 576.436 218.7221 575.9376 219.3851 575.6394 220.1306 575.3412 220.8722 575.1921 221.6452 575.1921 222.4417 575.1921 223.2068 575.3449 223.9639 575.6511 224.7055 575.9572 225.4473 576.4555 226.1143 577.146 226.7067 577.8366 227.2952 578.8568 227.613 580.2026 227.66H589.8586C590.2903 227.66 590.6551 227.5189 590.9652 227.2363 591.2711 226.95 591.4321 226.5928 591.4477 226.1653V218.4395C591.4477 218.0117 591.2909 217.6549 590.9732 217.3723 590.6591 217.0896 590.2903 216.9445 589.8586 216.9445 588.9404 217.023 588.4345 217.5214 588.344 218.4395ZM606.4637 231.156C606.8914 231.156 607.2602 231.0109 607.5663 230.7285 607.8725 230.4459 608.0332 230.0888 608.0491 229.6613V227.66H615.8648C616.2965 227.66 616.6613 227.5149 616.9674 227.2246 617.2617 226.9145 617.4068 226.5497 617.4068 226.1183 617.4068 225.6905 617.2577 225.3254 616.9558 225.0275 616.6576 224.7293 616.2965 224.5802 615.8648 224.5802H608.0491V224.121C608.0332 223.4894 608.0763 222.9126 608.1744 222.3828 608.2764 221.853 608.5159 221.3821 608.9003 220.9703 609.281 220.5544 609.7635 220.3347 610.3483 220.3033H615.9591C616.3866 220.2877 616.7438 220.1267 617.0264 219.8205 617.3087 219.5147 617.4502 219.1459 617.4502 218.7181 617.4383 218.3023 617.2852 217.9531 617.0029 217.6705 616.7203 217.3878 616.371 217.2387 615.9591 217.2231H609.5673C608.4924 217.2821 607.6094 217.6469 606.911 218.3139 606.2128 218.9809 605.7105 219.797 605.4043 220.7622 605.1141 221.7277 604.961 222.7555 604.9454 223.8423V224.5802H602.3007C601.8732 224.5802 601.5121 224.733 601.2218 225.0391 600.9157 225.3294 600.7626 225.6905 600.7626 226.1183 600.7626 226.5497 600.9117 226.9108 601.2099 227.2127 601.5081 227.5109 601.8732 227.66 602.3007 227.66H604.9454V229.6613C604.961 230.0732 605.1141 230.4224 605.4043 230.705 605.6946 230.9913 606.0478 231.1404 606.4637 231.156ZM628.3071 227.8877C628.723 227.876 629.0762 227.7269 629.3665 227.4403 629.6567 227.158 629.8098 226.8088 629.8257 226.3966V218.4395C629.7352 217.5214 629.2293 217.023 628.3071 216.9445 627.8794 216.9445 627.5066 217.0896 627.1929 217.3723 626.8788 217.6549 626.722 218.0117 626.722 218.4395V226.3966C626.7376 226.8244 626.8986 227.1815 627.2045 227.4639 627.5106 227.7465 627.8794 227.8877 628.3071 227.8877ZM626.3768 230.8776C626.3768 231.3091 626.561 231.6742 626.9298 231.98 627.2986 232.2901 627.7422 232.4432 628.2638 232.4432 628.7856 232.4432 629.2293 232.2901 629.598 231.98 629.9629 231.6742 630.1474 231.3091 630.1474 230.8776 630.1474 230.4343 629.9629 230.0576 629.598 229.7514 629.2293 229.4453 628.7856 229.2925 628.2638 229.2925 627.7422 229.2925 627.2986 229.4453 626.9298 229.7514 626.561 230.0576 626.3768 230.4343 626.3768 230.8776ZM644.4533 217.2231C643.1034 217.2662 642.0872 217.588 641.3967 218.1767 640.7062 218.7652 640.2078 219.4322 639.9017 220.1777 639.5958 220.9192 639.4428 221.6767 639.4428 222.4417 639.4428 223.2383 639.5919 224.0073 639.8901 224.7528 640.1883 225.4944 640.6866 226.1614 641.3848 226.7498 642.0832 227.3423 642.9662 227.6444 644.0411 227.66H651.4883C652.5595 227.6444 653.4462 227.3423 654.1447 226.7498 654.8431 226.1614 655.3375 225.4944 655.6397 224.7528 655.9379 224.0073 656.087 223.2383 656.087 222.4417 656.087 221.6767 655.9339 220.9192 655.6277 220.1777 655.3219 219.4322 654.8236 218.7652 654.133 218.1767 653.4422 217.588 652.4223 217.2662 651.0764 217.2231ZM643.947 224.5802C643.6568 224.5802 643.4056 224.4583 643.1899 224.223 642.9739 223.9838 642.8171 223.7091 642.7191 223.395 642.617 223.0812 642.57 222.7711 642.57 222.4653 642.57 222.1435 642.617 221.8258 642.7191 221.5117 642.8171 221.1939 642.9739 220.9192 643.1899 220.684 643.4056 220.4444 643.6568 220.3189 643.947 220.3033H651.5787C651.873 220.3189 652.1241 220.4444 652.3398 220.684 652.5556 220.9192 652.7126 221.1939 652.8107 221.5117 652.9088 221.8258 652.9598 222.1435 652.9598 222.4653 652.9598 222.7711 652.9088 223.0812 652.8107 223.395 652.7126 223.7091 652.5556 223.9838 652.3398 224.223 652.1241 224.4583 651.873 224.5802 651.5787 224.5802ZM673.1277 228.0053C673.9243 228.0053 674.7129 227.9151 675.4859 227.7309 676.2589 227.5464 677.0004 227.2757 677.7028 226.9145 678.4089 226.5537 679.0329 226.0749 679.5782 225.4785 680.1236 224.8784 680.4179 224.168 680.4609 223.3403V222.3748 218.4435C680.3708 217.5214 679.8645 217.023 678.9464 216.9485 678.515 216.9485 678.1462 217.0896 677.8321 217.3723 677.5143 217.6588 677.3576 218.0117 677.3576 218.4435V219.4557 222.626C677.3301 223.1008 677.1495 223.4971 676.8198 223.8111 676.4902 224.1249 676.1214 224.3761 675.7135 224.5564 675.3093 224.7409 674.8894 224.8784 674.4501 224.9725 674.0144 225.0626 673.575 225.1097 673.1277 225.1097 672.6844 225.1097 672.245 225.0626 671.8054 224.9725 671.37 224.8784 670.9501 224.7409 670.542 224.5564 670.138 224.3761 669.7689 224.1249 669.4396 223.8111 669.1099 223.4971 668.9293 223.1008 668.8981 222.626V219.4557 218.4435C668.8236 217.5214 668.3253 217.023 667.4031 216.9485 666.9754 216.9485 666.6026 217.0896 666.2889 217.3723 665.9748 217.6588 665.818 218.0117 665.818 218.4435V222.3748 223.3403C665.8651 224.168 666.1553 224.8784 666.6928 225.4785 667.2266 226.0749 667.8505 226.5537 668.5526 226.9145 669.259 227.2757 669.9966 227.5464 670.7735 227.7309 671.5466 227.9151 672.3312 228.0053 673.1277 228.0053" fill="#7688a1"/>
</g>
</svg>